#!OML:ASF E:\motion texture\Top Level 1\Subject 1\Session 1\male.ASF
:FULLY-SPECIFIED
:DEGREES
220
root 27.0302 17.4915 5.86037 332.728 -84.3495 -329.307
lowerback 1.86062 -4.93124 -6.08278
upperback -2.68911 -6.76247 2.25853
thorax -2.85703 -3.21642 5.97485
lowerneck -22.3864 -1.59261 -4.24338
upperneck 16.3431 -2.11827 5.95223
head 8.90563 -0.606335 2.44364
rclavicle -2.03009e-014 -1.66979e-014
rhumerus -56.9498 -13.2749 -56.5669
rradius 17.7641
rwrist 15.2381
rhand -7.41366 -18.1273
rfingers 7.12502
rthumb 18.4729 -47.2701
lclavicle -2.03009e-014 -1.66979e-014
lhumerus 0.622652 -21.1542 80.3151
lradius 66.7942
lwrist -1.28341
lhand -14.6935 15.636
lfingers 7.12502
lthumb 11.4604 45.3027
rfemur -71.5856 -8.36085 19.3696
rtibia 72.4
rfoot 386.955 -9.28299
rtoes 21.9035
lfemur 12.7883 -7.5534 -25.8005
ltibia 17.5478
lfoot 348.379 -5.64403
ltoes -20.246
221
root 26.8493 17.468 5.8445 335.03 -84.157 -331.296
lowerback 1.52369 -4.95453 -6.02983
upperback -2.80385 -6.77565 2.32329
thorax -2.78344 -3.22547 5.98543
lowerneck -22.3555 -1.66699 -4.29694
upperneck 16.3541 -2.21156 5.98318
head 8.91042 -0.650606 2.45007
rclavicle -3.76635e-014 -1.98785e-014
rhumerus -56.6029 -13.1556 -57.2556
rradius 17.9416
rwrist 14.8656
rhand -7.44551 -18.1438
rfingers 7.12502
rthumb 18.4423 -47.2896
lclavicle -3.76635e-014 -1.98785e-014
lhumerus -0.122067 -21.4619 80.754
lradius 66.8471
lwrist -1.49648
lhand -14.6021 15.5667
lfingers 7.12502
lthumb 11.5485 45.2285
rfemur -69.2719 -8.35132 19.2023
rtibia 69.7833
rfoot 387.593 -9.1006
rtoes 22.536
lfemur 13.0987 -7.70903 -25.5762
ltibia 17.4148
lfoot 348.729 -5.82448
ltoes -21.1006
222
root 26.6627 17.4433 5.82752 337.339 -83.9643 -333.314
lowerback 1.17574 -4.97349 -5.96635
upperback -2.91918 -6.78277 2.38884
thorax -2.70624 -3.23198 5.98987
lowerneck -22.313 -1.74885 -4.35649
upperneck 16.3799 -2.31616 6.02141
head 8.91923 -0.699947 2.45855
rclavicle 1.91579e-014 2.8625e-014
rhumerus -56.2416 -13.0418 -57.9436
rradius 18.117
rwrist 14.4957
rhand -7.46489 -18.1617
rfingers 7.12502
rthumb 18.4237 -47.3093
lclavicle 1.91579e-014 2.8625e-014
lhumerus -0.959384 -21.7788 81.2438
lradius 66.8375
lwrist -1.69897
lhand -14.4707 15.4985
lfingers 7.12502
lthumb 11.6752 45.1532
rfemur -66.8113 -8.29396 19.0537
rtibia 67.0865
rfoot 388.181 -9.03211
rtoes 23.0087
lfemur 13.4109 -7.84565 -25.3148
ltibia 17.3368
lfoot 349.132 -6.02138
ltoes -21.9693
223
root 26.4698 17.4173 5.80909 339.595 -83.7709 -335.303
lowerback 0.806715 -4.98968 -5.89983
upperback -3.03055 -6.7856 2.45271
thorax -2.61425 -3.2372 5.98845
lowerneck -22.26 -1.83469 -4.4244
upperneck 16.4164 -2.42745 6.0718
head 8.93073 -0.751805 2.47179
rclavicle 6.05051e-014 -8.74653e-015
rhumerus -55.8593 -12.9333 -58.6412
rradius 18.2905
rwrist 14.1292
rhand -7.48578 -18.1847
rfingers 7.12502
rthumb 18.4036 -47.3341
lclavicle 6.05051e-014 -8.74653e-015
lhumerus -1.88892 -22.1028 81.7744
lradius 66.7651
lwrist -1.88117
lhand -14.3075 15.4286
lfingers 7.12502
lthumb 11.8325 45.0743
rfemur -64.2056 -8.17764 18.9199
rtibia 64.3378
rfoot 388.396 -9.05248
rtoes 22.5779
lfemur 13.708 -7.94966 -25.0122
ltibia 17.3435
lfoot 349.598 -6.25364
ltoes -22.852
224
root 26.2703 17.39 5.78885 341.778 -83.5761 -337.237
lowerback 0.414781 -5.00496 -5.83799
upperback -3.14612 -6.78706 2.51636
thorax -2.5136 -3.24199 5.98738
lowerneck -22.1827 -1.92383 -4.50033
upperneck 16.4663 -2.54334 6.1254
head 8.94314 -0.806411 2.48691
rclavicle -2.86995e-015 -3.18055e-015
rhumerus -55.4665 -12.8023 -59.3653
rradius 18.4752
rwrist 13.7386
rhand -7.51324 -18.2148
rfingers 7.12502
rthumb 18.3771 -47.3668
lclavicle -2.86995e-015 -3.18055e-015
lhumerus -2.93071 -22.4297 82.3497
lradius 66.6339
lwrist -2.04541
lhand -14.1141 15.3584
lfingers 7.12502
lthumb 12.0191 44.9933
rfemur -61.4788 -8.01189 18.824
rtibia 61.646
rfoot 387.877 -8.96634
rtoes 21.3413
lfemur 13.9673 -8.01636 -24.6633
ltibia 17.4625
lfoot 350.144 -6.53836
ltoes -23.759
225
root 26.0642 17.3614 5.76658 343.854 -83.3793 -339.083
lowerback -0.0351397 -5.02032 -5.78381
upperback -3.23904 -6.78583 2.57267
thorax -2.3573 -3.24803 5.97551
lowerneck -22.1022 -2.01586 -4.57416
upperneck 16.5127 -2.66512 6.18338
head 8.95437 -0.863282 2.50234
rclavicle -4.21299e-014 1.66979e-014
rhumerus -55.0341 -12.6844 -60.1225
rradius 18.6691
rwrist 13.3323
rhand -7.54308 -18.2257
rfingers 7.12502
rthumb 18.3484 -47.3803
lclavicle -4.21299e-014 1.66979e-014
lhumerus -4.03859 -22.7664 82.9343
lradius 66.4428
lwrist -2.18484
lhand -13.8725 15.3085
lfingers 7.12502
lthumb 12.2521 44.9296
rfemur -58.6742 -7.80294 18.7831
rtibia 59.1183
rfoot 386.426 -8.69199
rtoes 19.1327
lfemur 14.1646 -8.03327 -24.2613
ltibia 17.7266
lfoot 350.791 -6.8993
ltoes -24.6766
226
root 25.8526 17.3315 5.74232 345.766 -83.1846 -340.775
lowerback -0.508863 -5.03378 -5.74549
upperback -3.33803 -6.78212 2.6263
thorax -2.19315 -3.25269 5.96784
lowerneck -22.0013 -2.1103 -4.65877
upperneck 16.5723 -2.78862 6.24118
head 8.96702 -0.922048 2.51939
rclavicle 6.5512e-014 -7.15625e-015
rhumerus -54.5872 -12.5405 -60.9129
rradius 18.88
rwrist 12.8875
rhand -7.59029 -18.229
rfingers 7.12502
rthumb 18.303 -47.3879
lclavicle 6.5512e-014 -7.15625e-015
lhumerus -5.25109 -23.112 83.5517
lradius 66.1869
lwrist -2.2936
lhand -13.5848 15.282
lfingers 7.12502
lthumb 12.5295 44.8864
rfemur -55.8609 -7.54611 18.7986
rtibia 56.8336
rfoot 383.888 -8.24218
rtoes 16.2303
lfemur 14.2557 -8.00757 -23.815
ltibia 18.1823
lfoot 351.563 -7.3369
ltoes -25.574
227
root 25.637 17.3006 5.71637 347.554 -83.0029 -342.348
lowerback -0.995244 -5.0405 -5.71324
upperback -3.44821 -6.76998 2.67859
thorax -2.03453 -3.25259 5.96208
lowerneck -21.8879 -2.20635 -4.74843
upperneck 16.6568 -2.91286 6.2891
head 8.98615 -0.982784 2.53405
rclavicle 6.60959e-015 -1.59028e-014
rhumerus -54.1283 -12.3714 -61.7361
rradius 19.1107
rwrist 12.3967
rhand -7.66016 -18.2224
rfingers 7.12502
rthumb 18.2358 -47.3876
lclavicle 6.60959e-015 -1.59028e-014
lhumerus -6.56641 -23.4671 84.2006
lradius 65.8667
lwrist -2.37898
lhand -13.2425 15.2842
lfingers 7.12502
lthumb 12.8594 44.868
rfemur -53.1129 -7.24206 18.8835
rtibia 54.8061
rfoot 380.33 -7.6088
rtoes 13.0918
lfemur 14.2017 -7.95073 -23.325
ltibia 18.8714
lfoot 352.494 -7.84584
ltoes -26.428
228
root 25.4193 17.2694 5.68921 349.326 -82.863 -343.91
lowerback -1.47351 -5.03117 -5.66148
upperback -3.574 -6.73806 2.73387
thorax -1.90154 -3.24178 5.95151
lowerneck -21.7664 -2.3037 -4.84823
upperneck 16.7752 -3.03666 6.32907
head 9.01568 -1.04497 2.54811
rclavicle -3.73964e-014 4.77083e-015
rhumerus -53.6544 -12.1803 -62.5871
rradius 19.3575
rwrist 11.8619
rhand -7.75613 -18.2297
rfingers 7.12502
rthumb 18.1435 -47.4035
lclavicle -3.73964e-014 4.77083e-015
lhumerus -7.98251 -23.8305 84.8796
lradius 65.4766
lwrist -2.4357
lhand -12.8512 15.3215
lfingers 7.12502
lthumb 13.2366 44.8812
rfemur -50.4995 -6.87147 19.0586
rtibia 53.0276
rfoot 376.032 -6.89305
rtoes 10.3385
lfemur 13.969 -7.86661 -22.7824
ltibia 19.8269
lfoot 353.635 -8.40575
ltoes -27.1887
229
root 25.2021 17.2391 5.66187 351.223 -82.7966 -345.615
lowerback -1.91773 -4.99256 -5.55321
upperback -3.70523 -6.67 2.79336
thorax -1.80407 -3.21264 5.91971
lowerneck -21.6581 -2.40387 -4.95786
upperneck 16.9279 -3.16186 6.36315
head 9.05967 -1.10885 2.56196
rclavicle 3.55079e-014 1.59028e-015
rhumerus -53.1454 -11.9904 -63.4641
rradius 19.6149
rwrist 11.3003
rhand -7.89339 -18.2411
rfingers 7.12502
rthumb 18.0114 -47.4272
lclavicle 3.55079e-014 1.59028e-015
lhumerus -9.47247 -24.2022 85.577
lradius 65.0063
lwrist -2.51132
lhand -12.426 15.3894
lfingers 7.12502
lthumb 13.6465 44.9221
rfemur -48.0757 -6.42024 19.3457
rtibia 51.4705
rfoot 371.416 -6.23668
rtoes 8.46885
lfemur 13.5354 -7.74804 -22.1752
ltibia 21.0732
lfoot 355.059 -9.00547
ltoes -27.7822
